<svg width="21" height="14" viewBox="0 0 21 14" fill="none" xmlns="http://www.w3.org/2000/svg">
<path d="M2.11327 0.726605C1.38671 0.902387 0.777331 1.50004 0.562488 2.23832C0.503894 2.43364 0.499988 2.93364 0.5078 7.06254L0.519519 11.668L0.605456 11.9024C0.828113 12.4844 1.30468 12.961 1.89452 13.1836L2.12108 13.2696L7.8203 13.2813C12.9531 13.2891 13.5469 13.2852 13.7383 13.2266C14.418 13.0313 14.9961 12.4766 15.2109 11.8047C15.2656 11.6368 15.2851 11.3946 15.3008 10.668L15.3242 9.74614L17.6094 10.9922C19.2695 11.9024 19.9414 12.25 20.0586 12.2618C20.207 12.2813 20.2383 12.2696 20.3633 12.1446L20.5 12.0079V7.00395V2.00004L20.3945 1.88286C20.3164 1.79692 20.2383 1.75395 20.1289 1.74223C19.9844 1.7227 19.8242 1.80473 17.6484 2.98832L15.3242 4.25786L15.3008 3.31645C15.2851 2.73442 15.2578 2.31254 15.2266 2.21489C15.0469 1.64457 14.6094 1.12895 14.1016 0.886762C13.6328 0.664105 13.8828 0.671918 7.86327 0.675824C3.52733 0.67973 2.27343 0.687543 2.11327 0.726605ZM13.7383 1.70707C14.0039 1.85551 14.2266 2.10551 14.3281 2.37895C14.4062 2.58989 14.4062 2.64067 14.3984 7.05082L14.3867 11.5118L14.2812 11.7071C14.1445 11.9727 13.9219 12.1836 13.6641 12.3086L13.4492 12.4102H7.90233H2.35546L2.09374 12.2813C1.79686 12.1368 1.62499 11.961 1.48046 11.6485L1.37889 11.4336V7.00004C1.37889 2.81645 1.3828 2.55473 1.44921 2.38286C1.53514 2.1602 1.69921 1.94536 1.90233 1.79692C2.22655 1.56254 1.85155 1.57426 7.94139 1.58207L13.5273 1.58989L13.7383 1.70707ZM19.6406 7.00004C19.6406 9.23442 19.6328 11.0625 19.625 11.0625C19.6133 11.0625 18.6367 10.5352 17.457 9.88676L15.3047 8.71098V7.00004V5.28911L17.4453 4.11723C18.6211 3.4727 19.5937 2.94536 19.6133 2.94145C19.6289 2.93754 19.6406 4.76567 19.6406 7.00004Z" fill="#443E3E"/>
</svg>
