<svg width="16" height="14" viewBox="0 0 16 14" fill="none" xmlns="http://www.w3.org/2000/svg">
<path d="M8.80785 0.234702C8.5897 0.30742 8.41782 0.409884 8.279 0.545403C8.20628 0.614816 7.55843 1.49734 6.83457 2.50546C5.47277 4.41264 5.22156 4.73987 4.67288 5.30838L4.34565 5.65214L4.20352 5.43729C3.57882 4.47875 2.24677 4.34323 1.45018 5.14973C1.19567 5.40754 1.04693 5.68189 0.974216 6.02564C0.901498 6.36939 0.901498 12.0612 0.974216 12.4049C1.11634 13.0726 1.63198 13.6048 2.28643 13.7601C3.03674 13.9353 3.82341 13.618 4.21674 12.9801L4.33904 12.785L4.67288 13.109C5.05299 13.4725 5.33064 13.6345 5.76364 13.7436C6.01484 13.8064 6.13714 13.8097 8.5897 13.8097C11.4158 13.8097 11.3827 13.8097 11.7793 13.6048C12.0305 13.4725 12.4239 13.0891 12.5363 12.8677C12.7742 12.395 14.9194 7.50973 14.9822 7.29819C15.045 7.08004 15.0549 6.97096 15.0549 6.40575C15.0549 5.8141 15.0483 5.74469 14.9789 5.57612C14.8169 5.16956 14.5195 4.86547 14.146 4.71012C13.9642 4.6374 13.9542 4.6374 11.7926 4.62749C10.596 4.62418 9.61765 4.61096 9.61765 4.60435C9.61765 4.59443 9.79945 4.1383 10.0176 3.58961C10.2391 3.03762 10.4539 2.48894 10.4969 2.36664C10.7712 1.56014 10.4506 0.674312 9.76309 0.333862C9.54163 0.224787 9.47883 0.211565 9.22762 0.201649C9.05244 0.195039 8.88718 0.20826 8.80785 0.234702ZM9.49866 1.0412C9.70359 1.18664 9.84903 1.48742 9.84903 1.77168C9.84903 1.97661 9.81597 2.07247 9.27059 3.43757C8.95328 4.23415 8.69216 4.93158 8.69216 4.98446C8.69216 5.12329 8.74835 5.22906 8.85743 5.29186C8.94006 5.34144 9.17143 5.34805 11.3265 5.34805C13.2238 5.35135 13.7262 5.36127 13.8253 5.39432C14.0137 5.46373 14.1658 5.59595 14.2484 5.76782C14.3211 5.91326 14.3277 5.96945 14.3244 6.38923C14.3244 6.65365 14.3046 6.9313 14.2815 7.03377C14.2385 7.20564 12.1 12.0645 11.8884 12.4644C11.7694 12.6958 11.5876 12.8611 11.3397 12.9801L11.1546 13.066L8.69216 13.0759C5.94213 13.0858 5.93552 13.0858 5.56532 12.8644C5.45624 12.7983 5.1786 12.557 4.934 12.3124L4.49439 11.8761V9.21859V6.56441L5.04969 5.99589C5.79008 5.23567 6.02476 4.93488 7.50224 2.86905C8.19967 1.89728 8.79132 1.08087 8.82107 1.05773C9.02269 0.892463 9.2772 0.885852 9.49866 1.0412ZM3.12268 5.4439C3.34083 5.53976 3.54576 5.7513 3.65484 5.98598L3.75069 6.19091V9.21528V12.2397L3.65484 12.4446C3.47305 12.8445 3.1359 13.0627 2.70951 13.0627C2.28313 13.0627 1.94598 12.8445 1.76419 12.4446L1.66833 12.2397V9.21528V6.19091L1.76088 5.99259C2.01539 5.44721 2.60044 5.21253 3.12268 5.4439Z" fill="white"/>
</svg>
